<svg aria-hidden="true" style="position:absolute;width:0;heght:0" xmlns="http://www.w3.org/2000/svg"
overflov="hidden">
    <defs>

        <symbol id="icon-avatar" viewBox="0 0 32 32">
            <circle cx="16" cy="16" r="16" fill="#F5F6FA"/>
            <path d="M19.2695 11.4688V17.0879C19.2695 18.0215 18.9766 18.7598 18.3906 19.3027C17.8086 19.8457 17.0117 20.1172 16 20.1172C15.0039 20.1172 14.2129 19.8535 13.627 19.3262C13.041 18.7988 12.7422 18.0742 12.7305 17.1523V11.4688H14.4883V17.0996C14.4883 17.6582 14.6211 18.0664 14.8867 18.3242C15.1562 18.5781 15.5273 18.7051 16 18.7051C16.9883 18.7051 17.4902 18.1855 17.5059 17.1465V11.4688H19.2695Z" fill="#52555F"/>
        </symbol>

        <symbol id="icon-logout" viewBox="0 0 16 16">
            <path d="M9.99998 14H1.99998V1.99998H9.99998V2.99998H12V0H0V16H12V13H10V14H9.99998Z"/>
            <path d="M12.293 4.29297L10.8789 5.70702L12.1719 6.99998H7V8.99999H12.1719L10.8789 10.293L12.293 11.707L16 7.99997L12.293 4.29297Z"/>
        </symbol>

        <symbol id="icon-close" viewBox="0 0 14 14">
            <path d="M1 1L13 13" stroke-width="2"/>
            <path d="M1 13L13 0.999999" stroke-width="2"/>
        </symbol>

        <symbol id="icon-logo" viewBox="0 0 90 31">
            <rect x="6" y="5" width="33" height="26" rx="8" fill="#FB7C2F"/>
            <rect width="33" height="26" rx="8" fill="#FB7C2F" fill-opacity="0.2"/>
            <path fill-rule="evenodd" clip-rule="evenodd" d="M23.1335 20.5701L24.419 19.1596L27.1865 23.9982H30.9003L26.508 16.7492L30.9003 11H27.0258L24.2226 15.0798L23.1335 16.7314V11H20V23.9982H23.1335V20.5701ZM37.712 23.1323C37.7953 23.5132 37.8906 23.8018 37.9977 23.9982H41.0062V23.8465C40.7444 23.3763 40.6075 22.6978 40.5956 21.811V17.5348C40.5777 16.4874 40.2117 15.6631 39.4975 15.062C38.7833 14.4608 37.8102 14.1603 36.5782 14.1603C35.3463 14.1603 34.3315 14.4519 33.534 15.0352C32.7425 15.6184 32.3467 16.3772 32.3467 17.3116H35.3552C35.3552 16.6094 35.7123 16.2582 36.4265 16.2582C37.1942 16.2582 37.5781 16.7016 37.5781 17.5884V18.0973H36.6497C35.1737 18.0973 34.0488 18.3651 33.2751 18.9007C32.5014 19.4364 32.1146 20.2279 32.1146 21.2754C32.1146 22.1086 32.433 22.802 33.0698 23.3555C33.7066 23.903 34.4803 24.1768 35.3909 24.1768C36.3848 24.1768 37.1585 23.8286 37.712 23.1323ZM37.0425 21.7932C36.7985 21.9539 36.489 22.0342 36.114 22.0342C35.8283 22.0342 35.5933 21.9509 35.4088 21.7843C35.2243 21.6117 35.132 21.3885 35.132 21.1147C35.132 20.1744 35.6558 19.7042 36.7032 19.7042H37.5781V21.2486C37.471 21.451 37.2924 21.6325 37.0425 21.7932ZM51.237 19.24C51.237 20.7398 50.8977 21.939 50.2193 22.8377C49.5467 23.7304 48.6361 24.1768 47.4875 24.1768C46.6007 24.1768 45.8716 23.8524 45.3003 23.2037V27.712H42.2918V14.3388H45.1039L45.1932 15.2316C45.7705 14.5174 46.5293 14.1603 47.4696 14.1603C48.6599 14.1603 49.5854 14.6007 50.246 15.4815C50.9067 16.3564 51.237 17.5616 51.237 19.0971V19.24ZM48.2285 19.0525C48.2285 17.3384 47.7285 16.4814 46.7287 16.4814C46.0145 16.4814 45.5383 16.7373 45.3003 17.2492V21.0522C45.5622 21.5879 46.0442 21.8557 46.7465 21.8557C47.7047 21.8557 48.1987 21.0284 48.2285 19.3739V19.0525ZM56.7453 24.1768C57.8285 24.1768 58.6885 23.7691 59.3253 22.9537L59.4146 23.9982H62.2356V14.3388H59.2093V21.1147C58.9176 21.6087 58.4266 21.8557 57.7362 21.8557C56.9328 21.8557 56.531 21.442 56.531 20.6148V14.3388H53.5225V20.5969C53.5225 21.7515 53.7933 22.6383 54.3349 23.2573C54.8825 23.8703 55.6859 24.1768 56.7453 24.1768ZM68.949 21.2843C68.949 21.0284 68.8151 20.8231 68.5473 20.6683C68.2794 20.5136 67.7706 20.3529 67.0207 20.1863C66.2708 20.0196 65.6518 19.8024 65.1638 19.5346C64.6758 19.2608 64.3038 18.9305 64.0479 18.5436C63.792 18.1568 63.664 17.7134 63.664 17.2134C63.664 16.3267 64.03 15.5976 64.7621 15.0262C65.3768 14.5415 66.1509 14.2603 67.0845 14.1825V11.9887H68.5185V14.2111C69.3917 14.3171 70.1215 14.5888 70.7077 15.0262C71.4814 15.6035 71.8683 16.3624 71.8683 17.3027H68.8508C68.8508 16.529 68.4431 16.1422 67.6278 16.1422C67.3123 16.1422 67.0475 16.2314 66.8332 16.41C66.619 16.5826 66.5118 16.7998 66.5118 17.0617C66.5118 17.3295 66.6428 17.5467 66.9046 17.7134C67.1665 17.88 67.5831 18.0169 68.1545 18.124C68.7318 18.2312 69.2377 18.3591 69.6721 18.5079C71.1243 19.0078 71.8504 19.9036 71.8504 21.195C71.8504 22.0759 71.4576 22.793 70.672 23.3465C70.0855 23.7629 69.3676 24.0227 68.5185 24.1258V26.3284H67.0845V24.1536C66.4774 24.1012 65.9234 23.9601 65.4227 23.7304C64.774 23.4328 64.2681 23.0281 63.905 22.5163C63.542 22.0045 63.3605 21.4658 63.3605 20.9004H66.1726C66.1845 21.3468 66.3333 21.6742 66.619 21.8825C66.9046 22.0848 67.2707 22.186 67.717 22.186C68.1277 22.186 68.4342 22.1027 68.6365 21.936C68.8449 21.7694 68.949 21.5521 68.949 21.2843ZM77.7694 14.3388V11.9374H74.7609V14.3388H73.5289V16.4278H74.7609V21.2218C74.7609 22.2157 75.0078 22.9567 75.5018 23.4447C75.9958 23.9328 76.7606 24.1768 77.7962 24.1768C78.3854 24.1768 78.9508 24.0905 79.4924 23.9179V21.7664C79.29 21.8021 79.04 21.82 78.7425 21.82C78.3556 21.82 78.0967 21.7485 77.9658 21.6057C77.8348 21.4629 77.7694 21.2099 77.7694 20.8469V16.4278H79.3584V14.3388H77.7694ZM86.9915 23.9982C86.8843 23.8018 86.7891 23.5132 86.7058 23.1323C86.1523 23.8286 85.3786 24.1768 84.3847 24.1768C83.4741 24.1768 82.7004 23.903 82.0636 23.3555C81.4268 22.802 81.1083 22.1086 81.1083 21.2754C81.1083 20.2279 81.4952 19.4364 82.2689 18.9007C83.0426 18.3651 84.1675 18.0973 85.6434 18.0973H86.5719V17.5884C86.5719 16.7016 86.188 16.2582 85.4203 16.2582C84.7061 16.2582 84.349 16.6094 84.349 17.3116H81.3405C81.3405 16.3772 81.7362 15.6184 82.5278 15.0352C83.3253 14.4519 84.34 14.1603 85.572 14.1603C86.804 14.1603 87.7771 14.4608 88.4913 15.062C89.2055 15.6631 89.5715 16.4874 89.5893 17.5348V21.811C89.6012 22.6978 89.7381 23.3763 90 23.8465V23.9982H86.9915ZM85.1078 22.0342C85.4827 22.0342 85.7922 21.9539 86.0362 21.7932C86.2862 21.6325 86.4648 21.451 86.5719 21.2486V19.7042H85.697C84.6495 19.7042 84.1258 20.1744 84.1258 21.1147C84.1258 21.3885 84.218 21.6117 84.4025 21.7843C84.587 21.9509 84.8221 22.0342 85.1078 22.0342Z" fill="black"/>
        </symbol>

        <symbol id="icon-add.income" viewBox="0 0 42 56">
            <path d="M13.4233 33.8555C13.4233 33.4024 13.0562 33.0352 12.603 33.0352H4.64807C4.19493 33.0352 3.82776 33.4024 3.82776 33.8555V39.1588C3.82776 39.6119 4.19493 39.9792 4.64807 39.9792H12.603C13.0562 39.9792 13.4233 39.6119 13.4233 39.1588V33.8555ZM11.7827 38.3384H5.46838V34.6757H11.7827V38.3384Z"/>
            <path d="M32.9326 38.2119H37.352C37.8051 38.2119 38.1723 37.8446 38.1723 37.3916C38.1723 36.9386 37.8051 36.5713 37.352 36.5713H32.9326C32.4794 36.5713 32.1122 36.9386 32.1122 37.3916C32.1122 37.8446 32.4794 38.2119 32.9326 38.2119Z"/>
            <path d="M32.9326 34.6758H37.352C37.8051 34.6758 38.1723 34.3085 38.1723 33.8555C38.1723 33.4024 37.8051 33.0352 37.352 33.0352H32.9326C32.4794 33.0352 32.1122 33.4024 32.1122 33.8555C32.1122 34.3085 32.4794 34.6758 32.9326 34.6758Z"/>
            <path d="M40.8875 42.7038C40.4344 42.7038 40.0672 43.0711 40.0672 43.5241V54.0755C40.0672 54.2325 39.9396 54.3601 39.7826 54.3601H2.21721C2.06026 54.3601 1.93262 54.2325 1.93262 54.0755V35.9219C1.93262 35.4688 1.56545 35.1016 1.1123 35.1016C0.659164 35.1016 0.291992 35.4688 0.291992 35.9219V54.0754C0.291992 55.137 1.15562 56.0006 2.21721 56.0006H39.7826C40.8441 56.0006 41.7078 55.137 41.7078 54.0754V43.524C41.7078 43.0711 41.3406 42.7038 40.8875 42.7038Z"/>
            <path d="M39.7827 27.8426H26.2397V23.6819C30.4775 21.702 33.4213 17.3994 33.4213 12.4214C33.4213 5.57222 27.8491 0 21 0C18.6229 0 16.3124 0.67375 14.3182 1.94852C12.3777 3.18894 10.8216 4.93784 9.81823 7.00591C9.62048 7.41355 9.79066 7.90431 10.1983 8.10206C10.6062 8.2997 11.0966 8.12952 11.2944 7.72209C13.1142 3.97086 16.8332 1.64062 21 1.64062C26.9446 1.64062 31.7807 6.47686 31.7807 12.4214C31.7807 18.3659 26.9446 23.2022 21 23.2022C15.0553 23.2022 10.2192 18.3659 10.2192 12.4214C10.2192 12.0025 10.2435 11.5804 10.2914 11.1669C10.3436 10.7168 10.0209 10.3097 9.57093 10.2576C9.12041 10.205 8.71376 10.528 8.66169 10.9781C8.60657 11.4541 8.57857 11.9397 8.57857 12.4215C8.57857 17.3995 11.5224 21.7021 15.7602 23.682V27.8428H2.21721C1.15573 27.8428 0.291992 28.7065 0.291992 29.768V32.0744C0.291992 32.5275 0.659164 32.8948 1.1123 32.8948C1.56545 32.8948 1.93262 32.5275 1.93262 32.0744V29.768C1.93262 29.6111 2.06026 29.4835 2.21721 29.4835H12.8936L20.3825 38.0423C20.5384 38.2202 20.7633 38.3224 21 38.3224C21.2366 38.3224 21.4615 38.2202 21.6174 38.0423L29.1063 29.4835H39.7827C39.9397 29.4835 40.0673 29.6111 40.0673 29.768V39.6737C40.0673 40.1267 40.4345 40.494 40.8876 40.494C41.3408 40.494 41.7079 40.1267 41.7079 39.6737V29.768C41.7078 28.7062 40.8442 27.8426 39.7827 27.8426ZM21 36.2561L15.0737 29.4832H16.5804C17.0336 29.4832 17.4008 29.116 17.4008 28.6629V24.3105C18.5406 24.6562 19.7487 24.8429 20.9998 24.8429C22.251 24.8429 23.4593 24.6562 24.5989 24.3105V28.6629C24.5989 29.116 24.9661 29.4832 25.4193 29.4832H26.926L21 36.2561Z"/>
            <path d="M4.64795 48.0449H6.85765C7.31079 48.0449 7.67797 47.6776 7.67797 47.2246C7.67797 46.7716 7.31079 46.4043 6.85765 46.4043H4.64795C4.19481 46.4043 3.82764 46.7716 3.82764 47.2246C3.82764 47.6776 4.19492 48.0449 4.64795 48.0449Z"/>
            <path d="M12.603 46.4043H10.3933C9.94017 46.4043 9.573 46.7716 9.573 47.2246C9.573 47.6776 9.94017 48.0449 10.3933 48.0449H12.603C13.0562 48.0449 13.4233 47.6776 13.4233 47.2246C13.4233 46.7716 13.056 46.4043 12.603 46.4043Z"/>
            <path d="M18.3483 48.0449C18.8014 48.0449 19.1686 47.6776 19.1686 47.2246C19.1686 46.7716 18.8014 46.4043 18.3483 46.4043H16.1385C15.6854 46.4043 15.3182 46.7716 15.3182 47.2246C15.3182 47.6776 15.6854 48.0449 16.1385 48.0449H18.3483Z"/>
            <path d="M24.0935 48.0449C24.5466 48.0449 24.9138 47.6776 24.9138 47.2246C24.9138 46.7716 24.5466 46.4043 24.0935 46.4043H21.8838C21.4306 46.4043 21.0635 46.7716 21.0635 47.2246C21.0635 47.6776 21.4306 48.0449 21.8838 48.0449H24.0935Z"/>
            <path d="M4.64795 52.4648H13.4869C13.94 52.4648 14.3072 52.0976 14.3072 51.6445C14.3072 51.1915 13.94 50.8242 13.4869 50.8242H4.64795C4.19481 50.8242 3.82764 51.1915 3.82764 51.6445C3.82764 52.0976 4.19492 52.4648 4.64795 52.4648Z"/>
            <path d="M27.6927 49.4344C27.6927 51.1051 29.0521 52.4644 30.7228 52.4644C31.5936 52.4644 32.3792 52.0946 32.9325 51.5045C33.4857 52.0946 34.2713 52.4644 35.1422 52.4644C36.8129 52.4644 38.1722 51.1051 38.1722 49.4344C38.1722 47.7636 36.8129 46.4043 35.1422 46.4043C34.2713 46.4043 33.4857 46.7741 32.9325 47.3643C32.3792 46.7741 31.5936 46.4043 30.7228 46.4043C29.0521 46.4043 27.6927 47.7636 27.6927 49.4344ZM35.1423 48.0449C35.9085 48.0449 36.5317 48.6682 36.5317 49.4344C36.5317 50.2005 35.9085 50.8238 35.1423 50.8238C34.3761 50.8238 33.7529 50.2005 33.7529 49.4344C33.7529 48.6682 34.3761 48.0449 35.1423 48.0449ZM32.1123 49.4344C32.1123 50.2005 31.489 50.8238 30.7229 50.8238C29.9567 50.8238 29.3335 50.2005 29.3335 49.4344C29.3335 48.6682 29.9567 48.0449 30.7229 48.0449C31.489 48.0449 32.1123 48.6682 32.1123 49.4344Z"/>
            <path d="M18.2824 16.7146C17.9036 16.4666 17.3951 16.573 17.1469 16.952C16.8988 17.3311 17.0051 17.8396 17.3843 18.0875C18.445 18.7814 19.1688 18.9869 20.1055 19.0386V19.9427C20.1055 20.3958 20.4727 20.763 20.9258 20.763C21.3789 20.763 21.7461 20.3958 21.7461 19.9427V18.9737C23.6055 18.612 24.6915 17.0803 24.932 15.6495C25.2408 13.8127 24.2798 12.2155 22.4838 11.5807C22.2415 11.495 21.9934 11.405 21.7461 11.3114V7.37697C22.372 7.5243 22.745 7.84116 22.7771 7.86927C23.1103 8.17114 23.6253 8.14861 23.9307 7.81731C24.2379 7.48427 24.2169 6.96528 23.8839 6.65816C23.8367 6.61484 23.0437 5.90073 21.7461 5.70802V4.90039C21.7461 4.44736 21.3789 4.08008 20.9258 4.08008C20.4727 4.08008 20.1055 4.44736 20.1055 4.90039V5.77091C19.9806 5.79825 19.8538 5.82986 19.7242 5.86891C18.5418 6.22514 17.6583 7.23708 17.4185 8.50998C17.1998 9.67023 17.5713 10.789 18.388 11.4295C18.8225 11.7703 19.3636 12.0825 20.1055 12.4124V17.3958C19.4586 17.3497 19.0145 17.1935 18.2824 16.7146ZM19.4006 10.1387C19.0676 9.87761 18.9259 9.36989 19.0307 8.81383C19.1251 8.31311 19.4572 7.711 20.1055 7.4718V10.588C19.84 10.4446 19.5998 10.295 19.4006 10.1387ZM21.9371 13.1277C23.4745 13.6711 23.3796 14.9873 23.314 15.3778C23.1856 16.1422 22.6516 16.9525 21.7461 17.2714V13.0593C21.8096 13.0821 21.8718 13.1046 21.9371 13.1277Z"/>
        </symbol>

        <symbol id="icon-salary" viewBox="0 0 50 56">
            <path d="M23.973 22.6616C23.7822 22.5941 23.5878 22.524 23.3931 22.4518V18.922C24.037 19.1772 24.4893 19.5348 24.5071 19.549C24.9725 19.9306 25.6594 19.8644 26.0433 19.4003C26.4284 18.9348 26.3632 18.2455 25.8977 17.8603C25.8337 17.8074 24.8175 16.9818 23.3932 16.6337V16.0977C23.3932 15.4936 22.9034 15.0039 22.2995 15.0039C21.6955 15.0039 21.2057 15.4936 21.2057 16.0977V16.5831C21.0899 16.608 20.9736 16.6361 20.8565 16.6713C19.5991 17.0501 18.6914 18.1099 18.4282 19.5064C18.1726 20.8632 18.6147 22.2163 19.5546 22.9534C19.9835 23.2897 20.5062 23.5981 21.2058 23.9187V28.5446C20.7105 28.4751 20.3391 28.307 19.7474 27.9199C19.242 27.5891 18.5642 27.7308 18.2333 28.2364C17.9027 28.7419 18.0442 29.4197 18.5499 29.7505C19.5888 30.4301 20.3214 30.6688 21.2058 30.745V31.4251C21.2058 32.0292 21.6956 32.5189 22.2996 32.5189C22.9035 32.5189 23.3933 32.0292 23.3933 31.4251V30.6403C25.2125 30.1792 26.3785 28.6253 26.6361 27.0933C26.9672 25.1227 25.897 23.3418 23.973 22.6616ZM21.2057 21.4442C21.0973 21.3748 20.9962 21.3042 20.9045 21.2323C20.6093 21.0007 20.475 20.4576 20.5779 19.9116C20.6124 19.7285 20.752 19.1848 21.2057 18.8962V21.4442ZM24.4787 26.7309C24.3787 27.3251 24.0103 27.9497 23.3931 28.3025V24.7821C24.5802 25.2813 24.5506 26.3026 24.4787 26.7309Z"/>
            <path d="M48.7903 23.3685L41.8438 18.7812V1.09375C41.8438 0.489672 41.354 0 40.75 0H14.5C13.896 0 13.4062 0.489672 13.4062 1.09375V5.25H9.25C8.64603 5.25 8.15625 5.73967 8.15625 6.34375V18.7813L1.20973 23.3686C0.903265 23.571 0.71875 23.9139 0.71875 24.2812V54.9062C0.71875 55.5103 1.20853 56 1.8125 56H20.0781C20.6821 56 21.1719 55.5103 21.1719 54.9062C21.1719 54.3022 20.6821 53.8125 20.0781 53.8125H4.45314L20.3994 37.8663L24.3973 40.5065C24.58 40.6271 24.79 40.6875 25 40.6875C25.21 40.6875 25.42 40.6271 25.6028 40.5065L29.6007 37.8663L45.547 53.8125H29.9219C29.3179 53.8125 28.8281 54.3022 28.8281 54.9062C28.8281 55.5103 29.3179 56 29.9219 56H48.1875C48.7915 56 49.2812 55.5103 49.2812 54.9062V24.2812C49.2812 23.9139 49.0967 23.571 48.7903 23.3685ZM46.2027 24.2812L41.8438 27.1598V21.4027L46.2027 24.2812ZM15.5938 2.1875H39.6562V28.6044L36.5938 30.6269V6.34375C36.5938 5.73967 36.104 5.25 35.5 5.25H15.5938V2.1875ZM8.15625 21.4027V27.1598L3.79733 24.2812L8.15625 21.4027ZM2.90625 52.2657V26.3143L18.536 36.6359L2.90625 52.2657ZM25 38.283L10.3438 28.6043V7.4375H34.4062V32.0714L25 38.283ZM47.0938 26.3143V52.2657L31.464 36.6358L47.0938 26.3143Z"/>
            <path d="M25 53.8125C24.7123 53.8125 24.4302 53.9295 24.2267 54.133C24.0233 54.3364 23.9062 54.6186 23.9062 54.9062C23.9062 55.1939 24.0232 55.4761 24.2267 55.6795C24.4303 55.883 24.7123 56 25 56C25.2877 56 25.5698 55.883 25.7732 55.6795C25.9766 55.4761 26.0938 55.1939 26.0938 54.9062C26.0938 54.6186 25.9767 54.3364 25.7732 54.133C25.5698 53.9295 25.2877 53.8125 25 53.8125Z"/>
        </symbol>

        <symbol id="icon-other" viewBox="0 0 56 56">
            <path d="M55.9927 39.084C54.3202 25.6665 41.8004 23.6786 38.2667 23.3855V11.1998C38.2667 11.116 38.1491 2.7998 28 2.7998C17.8509 2.7998 17.7333 11.116 17.7333 11.1998V23.3855C14.1996 23.6786 1.68483 25.6665 0.00729167 39.084C0.00729167 39.1027 0 39.1775 0 39.1998V42.9331C0 43.4486 0.417904 43.8665 0.933333 43.8665H5.6V45.7331H2.8C2.28457 45.7331 1.86667 46.151 1.86667 46.6665C1.86667 48.926 3.23203 53.1998 8.4 53.1998C13.568 53.1998 14.9333 48.926 14.9333 46.6665C14.9333 46.151 14.5154 45.7331 14 45.7331H11.2V43.8665H25.2V45.7331H22.4C21.8846 45.7331 21.4667 46.151 21.4667 46.6665C21.4667 48.926 22.832 53.1998 28 53.1998C33.168 53.1998 34.5333 48.926 34.5333 46.6665C34.5333 46.151 34.1154 45.7331 33.6 45.7331H30.8V43.8665H44.8V45.7331H42C41.4846 45.7331 41.0667 46.151 41.0667 46.6665C41.0667 48.926 42.432 53.1998 47.6 53.1998C52.768 53.1998 54.1333 48.926 54.1333 46.6665C54.1333 46.151 53.7154 45.7331 53.2 45.7331H50.4V43.8665H55.0667C55.5821 43.8665 56 43.4486 56 42.9331V39.1998C56 39.1784 56 39.1064 55.9927 39.084ZM19.6 11.1998C19.6 10.9327 19.6934 4.66647 28 4.66647C36.2487 4.66647 36.4 10.9364 36.4 11.1998V23.3331H34.5333V17.7331H32.6667V23.3331H19.6V11.1998ZM10.8268 27.0104C13.3041 25.9226 15.9633 25.3083 18.6667 25.1998H37.3333C40.0367 25.3083 42.6959 25.9226 45.1732 27.0104C49.88 28.9582 53.2223 33.2293 53.9811 38.2665H2.01888C2.77767 33.2293 6.11999 28.9582 10.8268 27.0104ZM8.4 51.3331C6.12591 51.504 4.1166 49.8625 3.83132 47.5998H12.9641C12.6679 49.8548 10.6686 51.4899 8.4 51.3331ZM9.33333 45.7331H7.46667V43.8665H9.33333V45.7331ZM28 51.3331C25.7259 51.504 23.7166 49.8625 23.4313 47.5998H32.5641C32.2679 49.8548 30.2686 51.4899 28 51.3331ZM28.9333 45.7331H27.0667V43.8665H28.9333V45.7331ZM47.6 51.3331C45.3241 51.5068 43.312 49.8643 43.0268 47.5998H52.1641C51.8679 49.8548 49.8686 51.4899 47.6 51.3331ZM48.5333 45.7331H46.6667V43.8665H48.5333V45.7331ZM54.1333 41.9998H1.86667V40.1331H54.1333V41.9998Z"/>
            <path d="M28 27.0669C25.4228 27.0669 23.3333 29.1564 23.3333 31.7336C23.3333 34.3107 25.4228 36.4002 28 36.4002C30.5771 36.4002 32.6666 34.3107 32.6666 31.7336C32.6635 29.1573 30.5762 27.0701 28 27.0669ZM28 34.5336C26.4537 34.5336 25.2 33.2798 25.2 31.7336C25.2 30.1873 26.4537 28.9336 28 28.9336C29.5463 28.9336 30.8 30.1873 30.8 31.7336C30.8 33.2798 29.5463 34.5336 28 34.5336Z"/>
            <path d="M29.8667 31.7334C29.8667 32.7642 29.0309 33.6 28 33.6C26.9692 33.6 26.1334 32.7642 26.1334 31.7334C26.1334 30.7025 26.9692 29.8667 28 29.8667C29.0309 29.8667 29.8667 30.7025 29.8667 31.7334Z"/>
            <path d="M32.6667 14H34.5334V15.8667H32.6667V14Z"/>
            <path d="M32.6667 11.1999V12.1332H34.5333V11.1999C34.5333 10.7218 34.3465 6.5332 28 6.5332V8.39987C32.3308 8.39987 32.6667 10.5464 32.6667 11.1999Z"/>
            <path d="M19.6 30.7998H21.4666V32.6665H19.6V30.7998Z"/>
            <path d="M15.8666 30.7998H17.7333V32.6665H15.8666V30.7998Z"/>
            <path d="M34.5333 30.7998H36.4V32.6665H34.5333V30.7998Z"/>
            <path d="M38.2667 30.7998H40.1333V32.6665H38.2667V30.7998Z"/>
        </symbol>

        <symbol id="icon-education" viewBox="0 0 56 42">
            <path d="M54.9145 4.25451C54.9109 4.25451 54.9072 4.25451 54.9037 4.25451H51.2239V2.99535C51.2437 2.49698 50.9213 2.04908 50.4423 1.90987C47.8877 1.2404 45.257 0.904713 42.616 0.911226C38.2741 0.911226 32.3582 1.88816 27.9837 6.33863C23.6418 1.84474 17.6825 0.911226 13.3514 0.911226C10.7104 0.904713 8.07978 1.2404 5.5251 1.90987C5.04613 2.04908 4.72374 2.49698 4.74355 2.99535V4.24365H1.08548C0.486024 4.24365 0 4.72968 0 5.32914V39.9994C0 40.5989 0.486024 41.0849 1.08548 41.0849C1.27191 41.0844 1.45509 41.0358 1.61737 40.9438C1.72592 40.8895 12.5807 34.9519 27.7341 38.7728H27.8969H27.9946C28.0811 38.7833 28.1685 38.7833 28.2551 38.7728C43.4518 34.9194 54.3066 40.8461 54.3718 40.9438C54.7076 41.1377 55.1214 41.1377 55.4573 40.9438C55.791 40.7511 55.9977 40.3958 56 40.0103V5.33999C56 4.74053 55.5141 4.25451 54.9145 4.25451ZM2.17096 38.2735V6.42547H4.76526V33.6494C4.75848 34.2488 5.23894 34.7403 5.8384 34.7471C5.89701 34.7477 5.95563 34.7437 6.01357 34.7348C8.25916 34.392 10.5263 34.2106 12.7978 34.1921C15.9444 34.1376 19.0777 34.6108 22.0678 35.5924C15.3155 34.7758 8.46635 35.6987 2.17096 38.2735ZM12.7978 32.032C10.8235 32.0365 8.85142 32.1633 6.89281 32.4119V3.85288C9.00624 3.38205 11.1644 3.14176 13.3297 3.13646C17.3894 3.13646 22.9905 4.06998 26.8765 8.45532L26.9091 35.4947C24.6513 34.0184 20.2442 32.032 12.7978 32.032ZM29.0801 8.45532C32.9661 4.1134 38.5672 3.13646 42.6269 3.13646C44.792 3.14284 46.9502 3.383 49.0638 3.85288V32.4119C47.1161 32.161 45.155 32.0305 43.1913 32.0211C35.7883 32.0211 31.3704 34.0076 29.0801 35.4838V8.45532ZM53.8182 38.2735C47.5094 35.6917 40.6445 34.7686 33.8779 35.5924C36.8821 34.6073 40.0304 34.1339 43.1913 34.1921C45.4771 34.2049 47.7589 34.3826 50.019 34.724C50.6117 34.8139 51.1651 34.4063 51.2551 33.8137C51.2639 33.7557 51.268 33.6971 51.2673 33.6385V6.42547H53.8616L53.8182 38.2735Z"/>
        </symbol>

        <symbol id="icon-sports" viewBox="0 0 56 56">
            <path d="M54.2851 23.6511H50.9474C50.3288 23.6511 49.7836 23.9689 49.4649 24.4492C46.9134 24.1826 46.5733 23.7737 46.2977 23.4404C45.9226 22.9871 45.4778 22.6026 44.9754 22.2975L37.3059 17.6389C35.7439 14.0107 33.1312 11.7424 31.1924 10.4709C30.4375 9.97577 29.9867 9.13708 29.9867 8.22748C29.9867 7.69086 30.1448 7.17218 30.4439 6.72699L32.3511 3.88837C32.7313 3.32312 32.8625 2.64465 32.7211 1.97815C32.5797 1.31165 32.184 0.745117 31.6073 0.382385C31.2086 0.132446 30.7494 0 30.2794 0H21.2175C20.7471 0 20.2878 0.132446 19.8896 0.382385C19.3128 0.74469 18.9172 1.31122 18.7758 1.97815C18.6344 2.64465 18.7655 3.32312 19.1458 3.88837L21.053 6.72699C21.3521 7.17218 21.5102 7.69086 21.5102 8.22748C21.5102 9.13708 21.0594 9.97577 20.3045 10.4709C17.4312 12.3551 11.0106 17.9084 13.4382 28.7618C14.7921 34.8154 15.838 39.0819 16.4669 41.1348H2.94076C1.82522 41.1348 0.849813 41.9278 0.622091 43.0198L0.159811 45.239C0.0136925 45.9401 0.188863 46.6608 0.64089 47.2167C1.09249 47.7721 1.76241 48.0908 2.47848 48.0908H49.0184C49.7349 48.0908 50.4044 47.7721 50.8564 47.2167C51.308 46.6608 51.4832 45.9401 51.3371 45.239L50.8748 43.0198C50.6471 41.9278 49.6717 41.1348 48.5561 41.1348H35.0299C35.2179 40.5209 35.4448 39.704 35.7075 38.6923H36.5979C39.2105 38.6923 41.7996 38.3022 44.2956 37.5327L49.3939 36.8901C49.6986 37.4344 50.2801 37.804 50.9474 37.804H54.2851C55.2656 37.804 56.0637 37.0063 56.0637 36.0254V25.4301C56.0637 24.4492 55.2656 23.6511 54.2851 23.6511ZM20.3809 2.31866C20.4292 2.09009 20.5647 1.89612 20.7625 1.77179C20.8992 1.68591 21.0564 1.64062 21.2175 1.64062H30.2794C30.4405 1.64062 30.5981 1.68591 30.7344 1.77179C30.9322 1.89612 31.0676 2.09009 31.1164 2.31866C31.1646 2.54681 31.1193 2.77966 30.9895 2.97321L30.0457 4.37799H21.4512L20.5074 2.97321C20.3771 2.77966 20.3322 2.54681 20.3809 2.31866ZM21.2038 11.8428C22.4232 11.0435 23.1512 9.69165 23.1512 8.22748C23.1512 7.44519 22.9401 6.68726 22.5428 6.01862H28.9541C28.5567 6.68726 28.3461 7.44519 28.3461 8.22748C28.3461 9.69165 29.0737 11.0435 30.2931 11.8428C30.7955 12.1722 31.3479 12.5756 31.9136 13.0605H19.588C20.1622 12.5674 20.7159 12.1628 21.2038 11.8428ZM49.2688 43.3548L49.731 45.5739C49.7926 45.8687 49.6648 46.0811 49.5832 46.1815C49.5016 46.2819 49.3196 46.4502 49.0184 46.4502H2.47848C2.17727 46.4502 1.99526 46.2819 1.91366 46.1815C1.83205 46.0811 1.70431 45.8687 1.76583 45.5739L2.22811 43.3548C2.29818 43.019 2.5981 42.7755 2.94076 42.7755H48.5557C48.8988 42.7755 49.1983 43.019 49.2688 43.3548ZM33.3081 41.1348H18.1887C17.8508 40.1278 16.9929 37.1362 15.0391 28.4033C14.2154 24.7209 14.4123 21.3871 15.6206 18.4698H18.6425C19.0958 18.4698 19.4628 18.1028 19.4628 17.6495C19.4628 17.1962 19.0958 16.8292 18.6425 16.8292H16.434C16.8972 16.0311 17.4124 15.324 17.9469 14.7011H33.5559C34.0917 15.3257 34.6057 16.0333 35.0662 16.8292H21.928C21.4747 16.8292 21.1077 17.1962 21.1077 17.6495C21.1077 18.1028 21.4747 18.4698 21.928 18.4698H32.7989C32.5899 18.9804 32.5472 19.5418 32.6809 20.0878C32.8488 20.7701 33.2722 21.3469 33.8721 21.7101L35.2824 22.5667H26.165C24.7171 22.5667 23.543 23.6805 23.4926 25.1024C23.4789 25.481 23.5447 25.8488 23.6823 26.188H22.841C22.1203 26.188 21.4482 26.4734 20.9475 26.9921C20.4476 27.5104 20.1857 28.1931 20.2118 28.9143C20.2515 30.041 20.997 30.9741 22.0254 31.3133C21.8626 31.6551 21.7716 32.037 21.7716 32.4404C21.7716 33.8909 22.9521 35.0714 24.4026 35.0714H25.6455C25.5207 35.3773 25.4519 35.7118 25.4519 36.0617C25.4519 37.5126 26.6324 38.6927 28.0829 38.6927H34.0118C33.667 39.9966 33.4453 40.7277 33.3081 41.1348ZM44.0192 35.9139C43.9709 35.9199 43.9239 35.9301 43.8778 35.9442C41.5185 36.6791 39.0691 37.0516 36.5979 37.0516H28.0829C27.5369 37.0516 27.0926 36.6073 27.0926 36.0613C27.0926 35.5153 27.5369 35.0709 28.0829 35.0709H33.4598C33.9127 35.0709 34.2801 34.7035 34.2801 34.2506C34.2801 33.7973 33.9127 33.4303 33.4598 33.4303H24.4026C23.8566 33.4303 23.4123 32.986 23.4123 32.4399C23.4123 31.8939 23.8566 31.4496 24.4026 31.4496H33.4598C33.9127 31.4496 34.2801 31.0826 34.2801 30.6293C34.2801 30.176 33.9127 29.809 33.4598 29.809H22.8842C22.333 29.809 21.8699 29.3813 21.8511 28.8553C21.8417 28.5836 21.94 28.326 22.128 28.1307C22.3168 27.9359 22.5697 27.8282 22.841 27.8282H33.4598C33.9127 27.8282 34.2801 27.4608 34.2801 27.0079C34.2801 26.5546 33.9127 26.1876 33.4598 26.1876H26.1218C25.8505 26.1876 25.5972 26.08 25.4088 25.8847C25.2208 25.6899 25.1225 25.4323 25.1319 25.1601C25.1507 24.6346 25.6143 24.2069 26.165 24.2069H37.4721C37.9382 24.2069 38.336 23.9053 38.462 23.4562C38.5876 23.0072 38.4043 22.5428 38.0057 22.301L34.7232 20.307C34.4967 20.1699 34.3378 19.9532 34.2746 19.696C34.2113 19.4393 34.2519 19.1731 34.3891 18.9471C34.6719 18.4797 35.2824 18.3301 35.7486 18.6121L44.1239 23.6993C44.4695 23.9091 44.7754 24.174 45.0335 24.4859C45.7042 25.2964 46.5656 25.7826 49.1684 26.0671V35.264L44.0192 35.9139ZM54.4231 36.0254C54.4231 36.1014 54.3611 36.1634 54.2851 36.1634H50.9474C50.8714 36.1634 50.809 36.1014 50.809 36.0254V25.4297C50.809 25.3536 50.8709 25.2917 50.9474 25.2917H54.2851C54.3611 25.2917 54.4231 25.3536 54.4231 25.4297V36.0254Z"/>
            <path d="M39.3344 53.3537L35.0619 49.9165C34.709 49.6324 34.1924 49.6888 33.9088 50.0417C33.6246 50.3946 33.6806 50.9111 34.0335 51.1948L37.9676 54.3594H13.5291L17.4713 51.1884C17.8242 50.9047 17.8802 50.3882 17.5961 50.0353C17.3124 49.6819 16.7958 49.6264 16.4429 49.9101L12.1624 53.3533C11.6638 53.7544 11.4792 54.4034 11.6915 55.0067C11.9039 55.61 12.455 56 13.0946 56H38.4021C39.0417 56 39.5924 55.6104 39.8052 55.0067C40.0175 54.4034 39.833 53.7544 39.3344 53.3537Z"/>
        </symbol>

        <symbol id="icon-communal" viewBox="0 0 56 56">
            <path d="M53.6881 0H2.31193C1.52336 0 0.878174 0.645189 0.878174 1.43375C0.878174 2.22232 1.52336 2.86751 2.31193 2.86751H5.40644V54.5304C5.40644 55.0561 5.69319 55.546 6.15916 55.7969C6.62513 56.0478 7.18669 56.0239 7.62876 55.7252L13.8536 51.5793L20.1024 55.7371C20.5803 56.0597 21.2136 56.0597 21.6915 55.7371L27.9164 51.5912L34.1651 55.7491C34.6431 56.0717 35.2763 56.0717 35.7542 55.7491L41.9791 51.6032L48.2279 55.761C48.4668 55.9164 48.7416 56 49.0164 56C49.2434 56 49.4824 55.9403 49.6975 55.8327C50.1634 55.5818 50.4502 55.092 50.4502 54.5662L50.4263 2.90335H53.6881C54.4766 2.90335 55.1218 2.25816 55.1218 1.4696C55.1218 0.681033 54.4766 0 53.6881 0ZM47.5946 51.8541L42.7796 48.652C42.3017 48.3294 41.6684 48.3294 41.1905 48.652L34.9656 52.8099L28.7169 48.652C28.239 48.3294 27.6057 48.3294 27.1278 48.652L20.9029 52.798L14.6541 48.652C14.1762 48.3294 13.543 48.3294 13.0651 48.652L8.27395 51.8421V2.85556H47.5827L47.5946 51.8541Z"/>
            <path d="M14.8692 22.8924H29.8877C30.6763 22.8924 31.3215 22.2472 31.3215 21.4587C31.3215 20.6701 30.6763 20.0249 29.8877 20.0249H14.8692C14.0806 20.0249 13.4354 20.6701 13.4354 21.4587C13.4354 22.2472 14.0687 22.8924 14.8692 22.8924Z"/>
            <path d="M14.8692 27.8748H26.1241C26.9127 27.8748 27.5579 27.2296 27.5579 26.4411C27.5579 25.6525 26.9127 25.0073 26.1241 25.0073H14.8692C14.0806 25.0073 13.4354 25.6525 13.4354 26.4411C13.4354 27.2296 14.0687 27.8748 14.8692 27.8748Z"/>
            <path d="M37.3912 22.8924H41.1428C41.9314 22.8924 42.5766 22.2472 42.5766 21.4587C42.5766 20.6701 41.9314 20.0249 41.1428 20.0249H37.3912C36.6026 20.0249 35.9574 20.6701 35.9574 21.4587C35.9574 22.2472 36.5906 22.8924 37.3912 22.8924Z"/>
            <path d="M37.3912 27.8748H41.1428C41.9314 27.8748 42.5766 27.2296 42.5766 26.4411C42.5766 25.6525 41.9314 25.0073 41.1428 25.0073H37.3912C36.6026 25.0073 35.9574 25.6525 35.9574 26.4411C35.9574 27.2296 36.5906 27.8748 37.3912 27.8748Z"/>
            <path d="M14.8692 11.3865H29.8877C30.6763 11.3865 31.3215 10.7414 31.3215 9.9528C31.3215 9.16423 30.6763 8.51904 29.8877 8.51904H14.8692C14.0806 8.51904 13.4354 9.16423 13.4354 9.9528C13.4354 10.7414 14.0687 11.3865 14.8692 11.3865Z"/>
            <path d="M14.8692 16.3568H26.1241C26.9127 16.3568 27.5579 15.7116 27.5579 14.923C27.5579 14.1344 26.9127 13.4893 26.1241 13.4893H14.8692C14.0806 13.4893 13.4354 14.1344 13.4354 14.923C13.4354 15.7116 14.0687 16.3568 14.8692 16.3568Z"/>
            <path d="M37.3912 11.3865H41.1428C41.9314 11.3865 42.5766 10.7414 42.5766 9.9528C42.5766 9.16423 41.9314 8.51904 41.1428 8.51904H37.3912C36.6026 8.51904 35.9574 9.16423 35.9574 9.9528C35.9574 10.7414 36.5906 11.3865 37.3912 11.3865Z"/>
            <path d="M37.3912 16.3568H41.1428C41.9314 16.3568 42.5766 15.7116 42.5766 14.923C42.5766 14.1344 41.9314 13.4893 41.1428 13.4893H37.3912C36.6026 13.4893 35.9574 14.1344 35.9574 14.923C35.9574 15.7116 36.5906 16.3568 37.3912 16.3568Z"/>
            <path d="M14.8692 34.5413H29.8877C30.6763 34.5413 31.3215 33.8961 31.3215 33.1076C31.3215 32.319 30.6763 31.6738 29.8877 31.6738H14.8692C14.0806 31.6738 13.4354 32.319 13.4354 33.1076C13.4354 33.8961 14.0687 34.5413 14.8692 34.5413Z"/>
            <path d="M14.8692 39.5116H26.1241C26.9127 39.5116 27.5579 38.8664 27.5579 38.0778C27.5579 37.2892 26.9127 36.644 26.1241 36.644H14.8692C14.0806 36.644 13.4354 37.2892 13.4354 38.0778C13.4354 38.8664 14.0687 39.5116 14.8692 39.5116Z"/>
            <path d="M37.3912 34.5413H41.1428C41.9314 34.5413 42.5766 33.8961 42.5766 33.1076C42.5766 32.319 41.9314 31.6738 41.1428 31.6738H37.3912C36.6026 31.6738 35.9574 32.319 35.9574 33.1076C35.9574 33.8961 36.5906 34.5413 37.3912 34.5413Z"/>
            <path d="M37.3912 39.5116H41.1428C41.9314 39.5116 42.5766 38.8664 42.5766 38.0778C42.5766 37.2892 41.9314 36.644 41.1428 36.644H37.3912C36.6026 36.644 35.9574 37.2892 35.9574 38.0778C35.9574 38.8664 36.5906 39.5116 37.3912 39.5116Z"/>
        </symbol>

        <symbol id="icon-technique" viewBox="0 0 56 56">
            <path d="M37.9904 16.9692C37.3867 16.9692 36.8966 17.458 36.8966 18.0626C36.8966 18.6667 37.3867 19.1563 37.9904 19.1563C38.5953 19.1563 39.0841 18.6667 39.0841 18.0626C39.0841 17.458 38.5953 16.9692 37.9904 16.9692Z"/>
            <path d="M18.1174 36.8418C17.5125 36.8418 17.0237 37.3318 17.0237 37.9355C17.0237 38.5405 17.5125 39.0293 18.1174 39.0293C18.7211 39.0293 19.2112 38.5405 19.2112 37.9355C19.2112 37.3318 18.7211 36.8418 18.1174 36.8418Z"/>
            <path d="M54.6939 6.72881C54.3248 6.64293 53.9369 6.75444 53.6703 7.02361L49.1359 11.5939H46.9621L44.5691 9.11455V6.91039L49.0385 2.37431C49.303 2.106 49.4106 1.7202 49.323 1.35319C49.2359 0.986616 48.9659 0.690961 48.6087 0.570478C47.4859 0.191937 46.3109 0.000103766 45.1159 0.000103766C41.5536 0.000103766 38.3172 1.66124 36.2365 4.55754C34.2891 7.26885 33.6888 10.5915 34.5489 13.7715L26.4923 21.8281L13.0699 8.37499V5.7346C13.0699 5.35051 12.8682 4.99419 12.5388 4.7968L4.80524 0.156049C4.37458 -0.102435 3.82386 -0.0345032 3.46924 0.320539L0.375977 3.41337C0.0213622 3.76842 -0.0465699 4.31914 0.211487 4.7498L4.85138 12.4834C5.04877 12.8128 5.40467 13.014 5.78876 13.0145L8.42829 13.0153L21.8519 26.4684L13.8261 34.4943C10.6461 33.6346 7.32172 34.2358 4.60913 36.1845C1.71454 38.2639 0.0546875 41.4994 0.0546875 45.0618C0.0546875 46.2564 0.246521 47.4317 0.625061 48.5541C0.745972 48.9134 1.04462 49.1847 1.41376 49.2702C1.78333 49.356 2.17084 49.2445 2.43787 48.9754L6.97181 44.4055H9.1576L11.648 46.8959V49.0817L7.07819 53.6157C6.80903 53.8827 6.69751 54.2702 6.78339 54.6398C6.86884 55.0089 7.14014 55.3076 7.49946 55.4285C8.62183 55.807 9.79719 55.9989 10.9918 55.9989C14.5541 55.9989 17.7893 54.3386 19.8691 51.444C21.8178 48.7314 22.4189 45.4074 21.5593 42.2274L28.0051 35.7816L29.4817 37.3854L28.8041 38.0626C28.3769 38.4899 28.3769 39.1824 28.8041 39.6097C29.2313 40.0365 29.9235 40.0365 30.3512 39.6097L30.9647 38.9962L44.8186 54.0446C44.8288 54.0557 44.8395 54.0664 44.8502 54.0771C47.4137 56.6406 51.5669 56.6414 54.1317 54.0767C56.6892 51.5179 56.6892 47.3544 54.1317 44.7956C54.1206 44.7845 54.109 44.7738 54.0975 44.7631L39.0255 30.9357L39.6322 30.329C40.0595 29.9022 40.0595 29.2097 39.6322 28.7824C39.205 28.3552 38.5128 28.3552 38.0852 28.7824L37.4123 29.4557L35.8054 27.9809L42.2824 21.5038C43.2032 21.7499 44.1534 21.8747 45.1159 21.8747C51.1469 21.8747 56.053 16.9682 56.053 10.9376C56.053 9.7426 55.8612 8.56767 55.4826 7.44487C55.3617 7.08556 55.0631 6.81426 54.6939 6.72881ZM9.6562 11.1491C9.45112 10.9436 9.17298 10.8389 8.88245 10.8389L6.4087 10.8381L2.52674 4.35673L4.41217 2.4713L10.8824 6.35411V8.82787C10.8824 9.11754 10.9973 9.39525 11.202 9.60033L24.9456 23.3752L23.3986 24.9218L9.6562 11.1491ZM37.4772 32.4841L52.6004 46.358C54.2898 48.0653 54.2846 50.8296 52.5846 52.5305C50.8808 54.2343 48.1225 54.2395 46.4118 52.5454L32.5126 37.4478L37.4772 32.4841ZM35.8639 31.0037L31.0296 35.8371L29.5531 34.2332L34.257 29.5288L35.8639 31.0037ZM45.1159 19.6872C44.1593 19.6872 43.2185 19.5338 42.3205 19.2313C41.927 19.0993 41.492 19.201 41.1981 19.4945C35.7148 24.9778 23.8997 36.7924 19.5491 41.1435C19.2551 41.4374 19.153 41.8724 19.2859 42.2663C20.1951 44.9661 19.7601 47.8457 18.0922 50.1678C16.4289 52.483 13.8406 53.8114 10.9918 53.8114C10.6718 53.8114 10.3535 53.7938 10.0382 53.7601L13.5121 50.3131C13.7189 50.108 13.8355 49.8286 13.8355 49.5368V46.4426C13.8355 46.1525 13.7202 45.8744 13.5151 45.6693L10.3838 42.538C10.1787 42.333 9.90058 42.2176 9.61048 42.2176H6.51636C6.22455 42.2176 5.94513 42.3342 5.73963 42.541L2.29303 46.015C2.25885 45.6997 2.24176 45.3814 2.24176 45.0613C2.24176 42.212 3.56964 39.6242 5.88532 37.9609C8.20698 36.293 11.087 35.8576 13.7872 36.7672C14.1807 36.9001 14.6157 36.798 14.9096 36.504C14.9699 36.4442 36.5432 14.8704 36.5586 14.855C36.8526 14.5611 36.9543 14.1266 36.8218 13.7327C35.9122 11.0329 36.3463 8.1541 38.013 5.83373C39.6775 3.51634 42.2662 2.18761 45.1155 2.18761C45.4453 2.18761 45.773 2.20598 46.0977 2.24187L42.696 5.69444C42.4944 5.89909 42.3816 6.17467 42.3816 6.46178V9.5559C42.3816 9.83959 42.4914 10.1117 42.6883 10.3155L45.7102 13.4468C45.9162 13.6605 46.2003 13.7809 46.4972 13.7809H49.5913C49.8827 13.7809 50.1621 13.6647 50.3676 13.4575L53.8142 9.984C53.8484 10.2993 53.8655 10.6176 53.8655 10.9376C53.8655 15.7621 49.9404 19.6872 45.1159 19.6872Z"/>
            <path d="M34.1238 20.3824L20.4369 34.0693C20.0101 34.4961 20.0101 35.1887 20.4369 35.6159C20.8642 36.0432 21.5567 36.0432 21.984 35.6159L35.6708 21.9291C36.0981 21.5023 36.0981 20.8097 35.6708 20.3824C35.2436 19.9552 34.551 19.9552 34.1238 20.3824Z"/>
            <path d="M47.9451 49.4375C48.3724 49.8634 49.0649 49.8634 49.4922 49.4349C49.9186 49.0072 49.9173 48.3147 49.4896 47.8883L39.6309 38.0612C39.2032 37.6348 38.5102 37.6361 38.0843 38.0637C37.6574 38.4918 37.6587 39.184 38.0864 39.6104L47.9451 49.4375Z"/>
        </symbol>

        <symbol id="icon-housing" viewBox="0 0 56 32">
            <path d="M53.2246 8.91566H52.112V4.78074C52.112 2.33631 50.1234 0.347656 47.679 0.347656H31.6128C30.1234 0.347656 28.8042 1.0867 28 2.21644C27.1958 1.08659 25.8766 0.347656 24.3872 0.347656H14.2939C13.8409 0.347656 13.4736 0.714937 13.4736 1.16797C13.4736 1.621 13.8409 1.98828 14.2939 1.98828H24.3872C25.927 1.98828 27.1797 3.24095 27.1797 4.78074V12.985C27.1625 12.9684 27.1444 12.953 27.127 12.9367C26.1546 12.0301 24.8368 11.5075 23.5065 11.5075H9.84255C9.77025 10.4061 9.01939 9.43738 7.98328 9.07009C7.69136 8.96663 7.3827 8.91566 7.07306 8.91566H5.52858V4.78074C5.52858 3.24095 6.78125 1.98828 8.32103 1.98828H11.0126C11.4657 1.98828 11.833 1.621 11.833 1.16797C11.833 0.714937 11.4657 0.347656 11.0126 0.347656H8.32103C5.87661 0.347656 3.88795 2.33631 3.88795 4.78074V8.91566H2.77539C1.24502 8.91566 0 10.1609 0 11.691V20.2563C0 23.4433 2.59284 26.0361 5.77981 26.0361H6.19205C6.19205 26.0361 5.29386 28.452 5.2932 28.4539C4.72653 29.9779 5.89291 31.6521 7.51625 31.6521H8.83597C9.57469 31.6521 10.2818 31.3003 10.7275 30.7111L14.2637 26.0361H41.7365L45.2727 30.7112C45.7184 31.3003 46.4255 31.6521 47.1641 31.6521C47.1641 31.6521 48.483 31.6521 48.4837 31.6521C50.1091 31.6521 51.2734 29.9776 50.7068 28.4539L49.8078 26.0361H50.2202C53.4072 26.0361 56 23.4433 56 20.2563V11.691C56 10.1609 54.755 8.91566 53.2246 8.91566ZM28.8203 4.78095C28.8203 3.24106 30.073 1.98839 31.6128 1.98839H47.679C49.2188 1.98839 50.4714 3.24106 50.4714 4.78084V8.91577C50.4714 8.91577 48.9274 8.91577 48.9268 8.91577C47.8361 8.91577 46.7899 9.61577 46.3668 10.62C46.2483 10.9013 46.1774 11.2033 46.1575 11.5077C46.1575 11.5077 32.4939 11.5077 32.4935 11.5077C31.1427 11.5077 29.7964 12.0512 28.8203 12.9852V4.78095ZM9.84856 13.1482H23.5065C25.532 13.1484 27.1797 14.7961 27.1797 16.8215V17.988H9.84856V13.1482ZM9.41905 29.7214C9.28167 29.9031 9.06358 30.0115 8.83586 30.0115C8.83586 30.0115 7.52073 30.0115 7.51614 30.0115C7.01389 30.0115 6.65591 29.4962 6.83091 29.0257L7.94237 26.0361H12.2065L9.41905 29.7214ZM48.4837 30.0114H47.1641C46.9364 30.0114 46.7184 29.903 46.5811 29.7214L43.7935 26.0361H48.0576C48.0576 26.0361 49.1653 29.0152 49.1691 29.0256C49.3444 29.4972 48.9839 30.0114 48.4837 30.0114ZM50.2202 24.3955H5.77981C3.49748 24.3956 1.64062 22.5386 1.64062 20.2563V11.691C1.64062 11.0653 2.14966 10.5563 2.77539 10.5563H7.07306C7.6988 10.5563 8.20783 11.0653 8.20783 11.691V18.8082C8.20783 19.2612 8.57511 19.6285 9.02814 19.6285H39.1584C39.6115 19.6285 39.9787 19.2612 39.9787 18.8082C39.9787 18.3552 39.6115 17.9879 39.1584 17.9879H28.8203V16.8214C28.8203 14.796 30.468 13.1482 32.4935 13.1482H46.1514V17.988H42.4397C41.9867 17.988 41.6194 18.3553 41.6194 18.8083C41.6194 19.2613 41.9867 19.6286 42.4397 19.6286H46.9717C47.4248 19.6286 47.7921 19.2613 47.7921 18.8083V11.6912C47.7921 11.0654 48.3011 10.5564 48.9268 10.5564H53.2245C53.8502 10.5564 54.3593 11.0654 54.3593 11.6912V20.2563H54.3594C54.3594 22.5386 52.5025 24.3955 50.2202 24.3955Z"/>
        </symbol>

        <symbol id="icon-transport" viewBox="0 0 50 56">
            <path d="M47.6607 22.4358L46.5855 21.1435L42.8117 9.5965C42.1687 7.64607 40.5243 6.35376 38.6901 6.3418H11.7359C9.90176 6.3418 8.25731 7.64607 7.61429 9.5965L3.89321 20.9999L2.34364 22.6273C0.994351 23.9315 0.214294 25.8461 0.214294 27.8563V44.6803C0.224836 47.4324 2.19606 49.658 4.62056 49.658H7.40347C9.82797 49.658 11.7992 47.4324 11.8097 44.6803V42.2392H37.9522V44.6803C37.9627 47.4324 39.9339 49.658 42.3585 49.658H45.1414C47.5659 49.658 49.5371 47.4324 49.5476 44.6803V27.4136C49.5371 25.535 48.8624 23.7401 47.6607 22.4358ZM9.59606 10.4102C9.93338 9.39308 10.7872 8.73496 11.7359 8.73496H38.7006C39.6493 8.73496 40.5032 9.40504 40.8405 10.4102L44.1294 20.4615H41.6733C41.0935 15.9743 37.4146 12.8751 33.4616 13.5452C30.3097 14.0717 27.8325 16.8837 27.3687 20.4615H6.30717L9.59606 10.4102ZM39.5228 20.4615H29.4981C30.0778 17.3144 32.7975 15.3042 35.5698 15.9623C37.5516 16.4409 39.1012 18.1999 39.5228 20.4615ZM9.70147 44.6803C9.69093 46.1162 8.66842 47.2649 7.40347 47.2649H4.62056C3.3556 47.2649 2.3331 46.1162 2.32256 44.6803V41.5452C2.95503 42.0119 3.7878 42.2392 4.62056 42.2392H9.70147V44.6803ZM47.4394 44.6803C47.4288 46.1162 46.4063 47.2649 45.1414 47.2649H42.3585C41.0935 47.2649 40.071 46.1042 40.0604 44.6803V42.2392H45.1414C45.9741 42.2392 46.8069 42.0119 47.4394 41.5452V44.6803ZM45.1414 39.8461H4.62056C3.36615 39.858 2.3331 38.7213 2.32256 37.2854V27.8563C2.32256 26.5401 2.83908 25.2837 3.72455 24.4341C3.73509 24.4221 3.75617 24.3982 3.76672 24.3862L5.20033 22.8546H45.1203L46.1322 24.0871C46.1428 24.111 46.1744 24.123 46.1849 24.1469C46.9755 24.9965 47.4288 26.1811 47.4288 27.4136V37.2854H47.4394C47.4288 38.7093 46.3958 39.858 45.1414 39.8461Z"/>
            <path d="M14.1288 27.6411H6.22283C5.64306 27.6411 5.1687 28.1796 5.1687 28.8377V35.0599C5.1687 35.718 5.64306 36.2565 6.22283 36.2565H14.1288C14.7086 36.2565 15.1829 35.718 15.1829 35.0599V28.8377C15.1829 28.1796 14.7086 27.6411 14.1288 27.6411ZM13.0747 33.8633H7.27696V30.0343H13.0747V33.8633Z"/>
            <path d="M43.5391 27.6411H35.6331C35.0533 27.6411 34.579 28.1796 34.579 28.8377V35.0599C34.579 35.718 35.0533 36.2565 35.6331 36.2565H43.5391C44.1189 36.2565 44.5932 35.718 44.5932 35.0599V28.8377C44.5932 28.1796 44.1189 27.6411 43.5391 27.6411ZM42.485 33.8633H36.6872V30.0343H42.485V33.8633Z"/>
            <path d="M29.9725 32.6665H19.7895C19.2098 32.6665 18.7354 33.205 18.7354 33.8631C18.7354 34.5212 19.2098 35.0597 19.7895 35.0597H29.9725C30.5522 35.0597 31.0266 34.5212 31.0266 33.8631C31.0266 33.205 30.5522 32.6665 29.9725 32.6665Z"/>
            <path d="M29.9725 28.957H19.7895C19.2098 28.957 18.7354 29.4955 18.7354 30.1536C18.7354 30.8117 19.2098 31.3502 19.7895 31.3502H29.9725C30.5522 31.3502 31.0266 30.8117 31.0266 30.1536C31.0266 29.4955 30.5522 28.957 29.9725 28.957Z"/>
        </symbol>

        <symbol id="icon-health" viewBox="0 0 51 56">
            <path d="M50.209 31.2001L49.3192 16.6657C49.2615 15.7243 48.8792 14.8651 48.243 14.2466C47.6066 13.6281 46.7933 13.3252 45.9531 13.3938C44.3015 13.5286 43.0205 15.087 43.0369 16.9416L43.1419 28.7903L38.5593 35.3638C37.8277 36.4131 36.6139 36.8344 35.5129 36.5184L40.499 29.2664C41.3742 27.9935 41.2287 26.1495 40.168 25.0683C39.6017 24.4909 38.8694 24.2057 38.1051 24.2656C37.3412 24.3254 36.6511 24.7216 36.1618 25.3815L28.6294 35.5413C27.3871 37.217 26.7135 39.3391 26.7323 41.517L26.8493 55.0092C26.8539 55.5469 27.2441 55.9802 27.7243 55.981L40.2665 56.0001C40.2668 56.0001 40.2673 56.0001 40.2677 56.0001C40.513 56.0001 40.7471 55.8849 40.913 55.6825C41.0793 55.4797 41.1619 55.2082 41.1405 54.9338L40.6286 48.3295L48.9547 35.9362C49.8674 34.578 50.3127 32.8959 50.209 31.2001ZM47.5545 34.7564L39.0266 47.4501C38.8967 47.6435 38.8351 47.8839 38.8538 48.125L39.312 54.036L28.5933 54.0197L28.4848 41.498C28.4698 39.784 29.0001 38.114 29.9777 36.7953L37.5101 26.6353C37.6906 26.3918 37.9453 26.2456 38.2271 26.2237C38.509 26.2012 38.7795 26.3067 38.9885 26.5199C39.38 26.9189 39.4336 27.5994 39.1106 28.069L33.4524 36.2986C33.304 36.5143 33.2424 36.7894 33.2823 37.058C33.3221 37.3266 33.4599 37.5647 33.6624 37.7151C35.6873 39.2193 38.4452 38.7171 39.9405 36.5719L44.7118 29.7278C44.834 29.5527 44.8993 29.3363 44.8974 29.1141L44.7893 16.9223C44.782 16.1013 45.3492 15.4113 46.0804 15.3515C46.4541 15.3214 46.8126 15.4553 47.0943 15.729C47.3761 16.0029 47.5452 16.3832 47.5708 16.8001L48.4606 31.3345C48.5355 32.5597 48.2139 33.7749 47.5545 34.7564Z"/>
            <path d="M14.6239 25.3813C14.1346 24.7214 13.4445 24.325 12.6806 24.2654C11.9171 24.2057 11.1841 24.4907 10.6179 25.068C9.55701 26.1493 9.41156 27.9934 10.2867 29.2663L15.2729 36.5183C14.1726 36.8339 12.9581 36.4131 12.2265 35.3637L7.6438 28.7902L7.74883 16.9415C7.76519 15.0869 6.48438 13.5285 4.83275 13.3937C3.99368 13.3256 3.17949 13.6278 2.54288 14.2465C1.90663 14.865 1.52436 15.7242 1.46664 16.6656L0.576749 31.1999C0.472887 32.8957 0.91836 34.5778 1.8308 35.9361L10.157 48.3294L9.6451 54.9337C9.62372 55.2079 9.70632 55.4796 9.87257 55.6824C10.0386 55.8848 10.2727 56 10.5179 56C10.5183 56 10.5188 56 10.5191 56L23.0613 55.9809C23.5415 55.9801 23.9317 55.5468 23.9363 55.009L24.0534 41.5169C24.0722 39.3391 23.3986 37.217 22.1563 35.5413L14.6239 25.3813ZM22.1924 54.0194L11.4738 54.0358L11.932 48.1248C11.9507 47.8836 11.8893 47.6432 11.7593 47.4498L3.23125 34.7561C2.57186 33.7747 2.25022 32.5594 2.32511 31.3343L3.21501 16.7999C3.24059 16.383 3.40976 16.0026 3.69156 15.7287C3.94706 15.4804 4.26706 15.3471 4.6019 15.3471C4.63624 15.3471 4.67071 15.3485 4.70541 15.3512C5.43665 15.4109 6.00362 16.1009 5.99638 16.9221L5.88831 29.1139C5.88632 29.3361 5.95175 29.5525 6.07395 29.7276L10.8452 36.5717C12.3407 38.7168 15.0984 39.2187 17.1234 37.715C17.326 37.5645 17.4637 37.3265 17.5036 37.0579C17.5434 36.7893 17.4817 36.5141 17.3335 36.2983L11.6751 28.0689C11.3522 27.5992 11.4058 26.9187 11.7975 26.5197C12.0065 26.3065 12.2766 26.2017 12.5586 26.2234C12.8405 26.2454 13.0952 26.3917 13.2757 26.6352L20.8081 36.7951C21.7857 38.114 22.316 39.784 22.3011 41.4979L22.1924 54.0194Z"/>
            <path d="M42.5578 11.0429C42.5578 8.09331 41.5322 5.32022 39.6699 3.23447C37.8076 1.1486 35.3317 0 32.698 0C30.0645 0 27.5885 1.1486 25.7261 3.23434L25.3929 3.60766L25.0596 3.23434C23.1974 1.1486 20.7214 0 18.0877 0C15.4542 0 12.9782 1.1486 11.1158 3.23434C7.27161 7.53995 7.27161 14.5456 11.1159 18.8514L24.7732 34.1476C24.9444 34.3391 25.1687 34.4351 25.3929 34.4351C25.6171 34.4351 25.8414 34.3393 26.0126 34.1476L39.6699 18.8513C41.5322 16.7656 42.5578 13.9925 42.5578 11.0429ZM25.393 32.0659L12.3551 17.4635C9.19405 13.9231 9.19405 8.16253 12.3551 4.62213C13.8863 2.90722 15.9223 1.96275 18.0877 1.96275C20.2533 1.96275 22.2892 2.90722 23.8205 4.62227L24.7733 5.68948C24.9376 5.87358 25.1604 5.97695 25.3929 5.97695C25.6254 5.97695 25.8482 5.87345 26.0126 5.68948L26.9653 4.62227C28.4966 2.90722 30.5326 1.96275 32.698 1.96275C34.8636 1.96275 36.8995 2.90722 38.4307 4.62227C39.962 6.33731 40.8053 8.6175 40.8053 11.0429C40.8053 13.4684 39.962 15.7485 38.4307 17.4636L25.393 32.0659Z"/>
        </symbol>

        <symbol id="icon-entertaintment" viewBox="0 0 51 56">
            <path d="M50.2263 27.517L48.0002 25.2679V3.8683L49.8706 1.97862C50.2373 1.60817 50.2373 1.00748 49.8706 0.637138C49.5038 0.266684 48.9094 0.266684 48.5427 0.637138L46.6723 2.52681H25.4909L23.2648 0.27784C22.8982 -0.0926134 22.3036 -0.0926134 21.937 0.27784C21.5704 0.648294 21.5704 1.24898 21.937 1.61933L24.068 3.77227L17.4591 32.0664C16.9141 32.7544 16.7317 33.6715 16.987 34.528C17.2711 35.481 18.0472 36.1959 19.0125 36.3938L23.227 37.2581C24.026 37.4221 24.7056 37.9323 25.0913 38.6581C25.4769 39.3839 25.5224 40.2379 25.2161 41.0013C24.7178 42.243 23.414 42.943 22.1171 42.665L6.32779 39.2854C3.95042 38.7764 1.55346 40.1399 0.750714 42.457C0.2852 43.8006 0.421065 45.2793 1.12334 46.5133C1.82573 47.7476 3.0221 48.6103 4.40533 48.8799L4.47072 48.8927C5.71494 49.1352 6.77155 49.9217 7.36968 51.0504C7.9677 52.1792 8.02973 53.5035 7.53954 54.6843C7.33893 55.1675 7.56411 55.7234 8.04229 55.9261C8.16094 55.9763 8.28393 56.0001 8.40496 56.0001C8.77196 56.0001 9.12044 55.7814 9.27114 55.418C9.98089 53.708 9.89125 51.7897 9.02496 50.155C8.15878 48.5203 6.62832 47.3811 4.82656 47.0299L4.76117 47.0171C3.91383 46.852 3.18124 46.3237 2.75113 45.5678C2.32101 44.8119 2.23787 43.9065 2.52302 43.0836C3.01452 41.6646 4.48306 40.8301 5.93828 41.1414L21.7272 44.521C23.9165 44.9896 26.1151 43.8092 26.9558 41.7141C27.4728 40.4261 27.396 38.9852 26.7453 37.7607C26.0947 36.5361 24.9484 35.6754 23.6002 35.3989L19.3857 34.5346C18.9665 34.4486 18.8258 34.1187 18.7847 33.9809C18.7514 33.8694 18.7041 33.6165 18.8476 33.3622L46.767 26.7058L48.898 28.8588C49.0814 29.0439 49.3218 29.1367 49.5621 29.1367C49.8023 29.1367 50.0427 29.0442 50.2261 28.8588C50.5929 28.4881 50.5929 27.8874 50.2263 27.517ZM44.7943 4.42403L36.0816 13.2264L27.3688 4.42403H44.7943ZM25.629 5.34935L34.7536 14.568L19.9924 29.4816L25.629 5.34935ZM21.3203 30.8233L36.0816 15.9097L45.2063 25.1284L21.3203 30.8233ZM46.1221 23.3705L37.4094 14.568L46.1221 5.76552V23.3705Z"/>
        </symbol>

        <symbol id="icon-alcohol" viewBox="0 0 49 56">
            <path d="M11.7984 4.72461C11.3997 4.72461 11.0763 5.09659 11.0763 5.55553V5.90706C11.0763 6.36589 11.3996 6.73798 11.7984 6.73798C12.1972 6.73798 12.5205 6.366 12.5205 5.90706V5.55553C12.5204 5.09659 12.1972 4.72461 11.7984 4.72461Z"/>
            <path d="M9.69878 7.4917H9.39338C8.99463 7.4917 8.67126 7.86368 8.67126 8.32262C8.67126 8.78145 8.99454 9.15354 9.39338 9.15354H9.69878C10.0975 9.15354 10.4209 8.78156 10.4209 8.32262C10.4209 7.86379 10.0976 7.4917 9.69878 7.4917Z"/>
            <path d="M10.8242 6.02695L10.6082 5.77845C10.3263 5.45404 9.86897 5.45404 9.58704 5.77856C9.30512 6.10307 9.30512 6.62917 9.58714 6.95357L9.80319 7.20207C9.94415 7.36428 10.1289 7.44543 10.3137 7.44543C10.4985 7.44543 10.6834 7.36428 10.8243 7.20196C11.1063 6.87745 11.1063 6.35135 10.8242 6.02695Z"/>
            <path d="M10.8243 9.44358C10.5423 9.11907 10.0851 9.11907 9.80306 9.44358L9.587 9.69219C9.30498 10.0166 9.30498 10.5428 9.587 10.8672C9.72797 11.0294 9.91275 11.1106 10.0976 11.1106C10.2824 11.1106 10.4672 11.0294 10.6082 10.8672L10.8243 10.6186C11.1063 10.2942 11.1063 9.76799 10.8243 9.44358Z"/>
            <path d="M43.3112 6.85344H18.9168C18.6415 5.07598 17.8702 3.44805 16.7039 2.20795C15.3649 0.784109 13.6227 0 11.7984 0C7.81013 0 4.56543 3.73363 4.56543 8.32289C4.56543 12.9122 7.81013 16.6458 11.7984 16.6458C12.5307 16.6458 13.2502 16.5178 13.9446 16.269C15.0327 17.4502 16.3808 18.3339 17.9033 18.7895C18.8869 19.0839 19.6342 20.0179 19.8069 21.1692L20.7248 27.2869C21.0491 29.4483 22.0943 31.322 23.6679 32.5629C24.8611 33.5037 25.5735 35.0378 25.5735 36.6667V49.1358C25.0229 49.5373 24.6703 50.243 24.6703 51.0216C24.6703 51.0453 24.6706 51.0689 24.6712 51.0926C22.867 51.5169 21.381 51.9077 20.2529 52.2545C19.4844 52.4907 18.9047 52.6991 18.4805 52.8915C18.0853 53.0707 17.3496 53.4044 17.3496 54.1789C17.3496 55.2196 18.5254 55.3972 19.4703 55.5401C20.282 55.6628 21.4066 55.765 22.8128 55.844C25.1883 55.9776 27.5948 55.9998 27.6189 56C27.6207 56 27.6225 56 27.6243 56C27.6261 56 27.628 56 27.6297 56C27.6538 55.9998 30.0603 55.9775 32.4358 55.844C33.842 55.765 34.9666 55.6628 35.7783 55.5401C36.7232 55.3972 37.899 55.2196 37.899 54.1789C37.899 53.3558 37.2394 52.9312 34.83 52.2039C33.37 51.7632 31.5511 51.3183 30.2448 51.0147C30.2433 50.4148 30.036 49.8541 29.6751 49.4417V36.6665C29.6751 35.0377 30.3876 33.5036 31.5807 32.5628C33.1543 31.3219 34.1995 29.4482 34.5238 27.2868L35.4417 21.1691C35.6144 20.0178 36.3616 19.0837 37.3453 18.7894C40.6437 17.8024 43.1244 14.8092 43.909 11.1234C43.912 11.1092 43.9153 11.0952 43.9177 11.0808C44.0834 10.2879 44.1724 9.464 44.1724 8.62061V7.84459C44.1725 7.29805 43.7861 6.85344 43.3112 6.85344ZM11.7984 14.9839C8.60647 14.9839 6.00965 11.9958 6.00965 8.32289C6.00965 4.64997 8.60647 1.66184 11.7984 1.66184C13.2583 1.66184 14.6524 2.28922 15.7238 3.42847C16.5931 4.3528 17.188 5.54575 17.4437 6.85344H16.7041C16.1325 4.31988 14.1263 2.48828 11.7984 2.48828C9.00246 2.48828 6.72786 5.10573 6.72786 8.32289C6.72786 11.54 9.00256 14.1575 11.7984 14.1575C12.0066 14.1575 12.2152 14.1413 12.423 14.1115C12.5616 14.3717 12.71 14.6244 12.8675 14.8695C12.5165 14.9454 12.1593 14.9839 11.7984 14.9839ZM14.0096 5.7785C13.7277 5.45409 13.2704 5.45409 12.9885 5.7785L12.7725 6.027C12.578 6.25067 12.5178 6.57027 12.5914 6.85344H11.9377C11.4627 6.85344 11.0763 7.29805 11.0763 7.84459V8.62061C11.0763 9.46378 11.1652 10.2875 11.3309 11.0801C11.3334 11.0955 11.3368 11.1105 11.3401 11.1256C11.4398 11.5935 11.5659 12.0506 11.7186 12.4935C9.75584 12.4443 8.17199 10.593 8.17199 8.32289C8.17199 6.02197 9.79881 4.15002 11.7984 4.15002C13.3326 4.15002 14.6717 5.2617 15.1923 6.85344H14.0828C14.2881 6.52848 14.2643 6.07152 14.0096 5.7785ZM29.8525 52.6189C32.3911 53.2067 33.9848 53.6522 34.9823 53.974C33.158 54.1802 30.2317 54.3152 27.6244 54.3382C25.0177 54.3152 22.0916 54.1802 20.2673 53.9742C21.2213 53.6663 22.7204 53.2454 25.0697 52.6949C25.7196 52.5428 26.1694 51.8425 26.1161 51.0666C26.1151 51.0518 26.1145 51.0367 26.1145 51.0215C26.1145 50.7641 26.2657 50.5378 26.4823 50.471C26.7981 50.3737 27.0177 50.0445 27.0177 49.6684V36.6665C27.0177 35.5725 26.7783 34.5115 26.3391 33.568C26.7427 33.5981 27.1834 33.6135 27.6244 33.6135C28.0654 33.6135 28.5061 33.5981 28.9097 33.568C28.4705 34.5116 28.2311 35.5726 28.2311 36.6665V49.8361C28.2311 50.1212 28.3582 50.3864 28.5677 50.5386C28.7136 50.6446 28.8008 50.825 28.8008 51.0214C28.8008 51.034 28.8004 51.0466 28.7998 51.0581C28.7582 51.7994 29.2107 52.4704 29.8525 52.6189ZM42.7285 8.62061H42.7284C42.7284 9.12012 42.6919 9.61166 42.6217 10.0917H20.8832C20.4845 10.0917 20.1611 10.4637 20.1611 10.9226C20.1611 11.3815 20.4844 11.7535 20.8832 11.7535H42.2298C41.3664 14.3772 39.4453 16.4442 36.9821 17.1812C35.4509 17.6393 34.2877 19.0937 34.0188 20.8865L33.101 27.0041C32.8436 28.7198 32.0139 30.2071 30.7646 31.1921C30.5709 31.3449 29.9957 31.7017 29.8907 31.7555C29.3193 32.0147 25.9344 32.0148 25.3591 31.756C25.2545 31.7028 24.6785 31.3453 24.4843 31.1922C23.235 30.2071 22.4053 28.7198 22.1479 27.0042L21.2301 20.8866C20.9612 19.0938 19.7979 17.6395 18.2668 17.1813C16.8731 16.7642 15.6532 15.921 14.6996 14.7925C14.677 14.7604 14.6522 14.7308 14.626 14.7033C13.9296 13.856 13.3812 12.8541 13.0191 11.7537H17.5236C17.9223 11.7537 18.2457 11.3817 18.2457 10.9227C18.2457 10.4639 17.9224 10.0918 17.5236 10.0918H12.6272C12.557 9.61176 12.5205 9.12012 12.5205 8.62072V8.51528H42.7285V8.62061Z"/>
        </symbol>

        <symbol id="icon-product" viewBox="0 0 59 57">
            <path d="M24.4632 21.1923C23.9894 20.6114 23.3147 20.2712 22.6124 20.259C21.1996 20.2387 20.0309 21.5002 20.007 23.0812C19.9993 23.5909 20.3619 24.011 20.8169 24.0196C20.8217 24.0197 20.8263 24.0197 20.8311 24.0197C21.2797 24.0197 21.6471 23.6167 21.6547 23.1124C21.6631 22.5477 22.0775 22.0946 22.5865 22.1045C22.8406 22.1089 23.075 22.227 23.2465 22.4372C23.5534 22.8136 24.0747 22.8399 24.4106 22.4961C24.7465 22.1525 24.7702 21.5686 24.4632 21.1923Z"/>
            <path d="M28.847 24.2001C28.5945 23.5352 28.1028 23.0104 27.4978 22.7602C26.2812 22.2576 24.9249 22.9561 24.4742 24.3171C24.3159 24.7951 24.5335 25.3261 24.9601 25.5034C25.0546 25.5427 25.1514 25.5613 25.2465 25.5613C25.5813 25.5613 25.8959 25.3312 26.0192 24.9591C26.1545 24.5503 26.5624 24.3411 26.9272 24.4919C27.1105 24.5677 27.2538 24.7206 27.3304 24.9224C27.5085 25.3913 27.9925 25.6101 28.4111 25.4105C28.83 25.2111 29.025 24.6692 28.847 24.2001Z"/>
            <path d="M34.1576 16.027C33.8355 15.6668 33.3138 15.6676 32.9924 16.0283L32.2157 16.9C31.8943 17.2608 31.8948 17.8451 32.2169 18.205C32.3776 18.3848 32.5883 18.4746 32.7989 18.4746C33.01 18.4746 33.2212 18.3843 33.3821 18.2037L34.1589 17.332C34.4803 16.9713 34.4798 16.3869 34.1576 16.027Z"/>
            <path d="M29.0313 27.9404H27.9331C27.4779 27.9404 27.1091 28.3536 27.1091 28.8633C27.1091 29.3729 27.4779 29.7861 27.9331 29.7861H29.0313C29.4865 29.7861 29.8553 29.3729 29.8553 28.8633C29.8553 28.3536 29.4865 27.9404 29.0313 27.9404Z"/>
            <path d="M37.4517 27.9404H36.3534C35.8982 27.9404 35.5294 28.3536 35.5294 28.8633C35.5294 29.3729 35.8983 29.7861 36.3534 29.7861H37.4517C37.9067 29.7861 38.2757 29.3729 38.2757 28.8633C38.2757 28.3536 37.9067 27.9404 37.4517 27.9404Z"/>
            <path d="M58.9378 44.5803L58.7232 43.2832C58.5864 42.4543 57.9402 41.8528 57.1866 41.8528C57.0921 41.8528 56.9967 41.8625 56.9029 41.8818L52.5347 42.7805L54.5129 41.2994C55.0314 40.9113 55.2934 40.2171 55.1803 39.5284C55.1489 39.3398 55.09 39.1588 55.0048 38.9893L54.4061 37.8021C54.201 37.3942 53.8512 37.0911 53.4475 36.971C53.2497 36.9119 53.043 36.8988 52.8412 36.9282C53.0615 35.5666 53.1751 34.1759 53.1751 32.7602C53.1751 32.1321 52.8378 31.5915 52.3561 31.3515C52.9856 29.6746 53.0286 27.7548 52.4063 25.9967C52.3559 25.8538 52.2809 25.7262 52.1839 25.6174C52.0877 25.5096 51.9751 25.4263 51.8473 25.3688C51.1017 25.0362 50.318 24.8677 49.5181 24.8677C49.4158 24.8677 49.314 24.8706 49.2125 24.876C49.0983 22.3003 47.195 20.2441 44.8714 20.2441C44.5654 20.2441 44.267 20.2805 43.9788 20.3484C44.179 19.0072 44.0611 17.6041 43.5947 16.2868C43.5447 16.142 43.4694 16.012 43.3671 15.8956C43.2687 15.7854 43.1532 15.7003 43.0251 15.6434C42.2219 15.2851 41.3777 15.1035 40.516 15.1035C39.2178 15.1035 37.976 15.5122 36.904 16.2721C36.5123 15.0014 35.8664 13.8085 34.964 12.7955C34.6997 12.4989 34.3481 12.3355 33.9741 12.3355C33.6 12.3355 33.2484 12.4989 32.9838 12.7957L28.9943 17.2741C28.256 16.5366 27.2845 16.0957 26.23 16.0957C25.9908 16.0957 25.7492 16.1192 25.512 16.1655C24.6525 16.3331 23.8616 16.8042 23.2553 17.4942C22.4778 17.074 21.5871 16.9307 20.7312 17.0975C20.5429 17.1342 20.3602 17.1859 20.1829 17.2489V13.7979C20.1829 11.4214 18.4775 9.48454 16.3679 9.44369V7.48651C17.0137 7.36137 17.5067 6.73101 17.5067 5.97255V1.53808C17.5067 0.690044 16.8907 0 16.1334 0H9.43279C8.6755 0 8.0595 0.690044 8.0595 1.53808V5.97255C8.0595 6.73101 8.55257 7.36137 9.19834 7.48651V9.44344C7.08875 9.48417 5.38346 11.421 5.38346 13.7977V40.732C3.73837 42.396 2.71423 44.7178 2.71423 47.2853C2.71423 52.3358 6.67204 56.4448 11.537 56.4448L44.5164 56.434C45.642 56.4335 46.7007 55.8794 47.4207 54.914C48.1221 53.9742 48.4201 52.7534 48.2484 51.5495L54.8355 52.8754C54.9267 52.8937 55.02 52.9031 55.1127 52.9031C55.4412 52.9031 55.7559 52.7901 56.0224 52.5767C56.3651 52.3026 56.597 51.8782 56.6589 51.4127L56.8373 50.0719C56.863 49.8798 56.8601 49.6864 56.8288 49.4968C56.7155 48.8112 56.2493 48.2672 55.6412 48.1111L53.3195 47.5146L57.6833 46.6167C58.0949 46.5321 58.4519 46.2733 58.6888 45.8881C58.9252 45.5038 59.0136 45.0394 58.9378 44.5803ZM49.5181 26.7131C50.0141 26.7131 50.5018 26.8011 50.9707 26.9745C51.3897 28.4035 51.2329 29.9449 50.5768 31.2182H48.3571L49.0654 30.4231C49.3868 30.0623 49.3862 29.478 49.0639 29.1179C48.7417 28.7579 48.22 28.7585 47.8987 29.1194L47.524 29.5401C47.3483 28.8923 47.0416 28.3122 46.6384 27.8364C47.4562 27.1091 48.4601 26.7131 49.5181 26.7131ZM44.8714 22.0895C46.3594 22.0895 47.57 23.4494 47.57 25.121C47.57 25.152 47.5687 25.1827 47.5679 25.2134C46.6994 25.5298 45.8988 26.0583 45.216 26.776C45.1073 26.7299 44.9971 26.687 44.884 26.652C44.6429 25.1936 43.7655 24.0247 42.6063 23.4787C43.0874 22.644 43.9221 22.0895 44.8714 22.0895ZM40.5158 16.9489C41.0755 16.9489 41.6255 17.0503 42.1554 17.2509C42.5814 18.6693 42.4944 20.193 41.9516 21.5128C41.5055 21.968 41.1435 22.5254 40.8961 23.1519C40.749 23.1615 40.6019 23.1797 40.4565 23.208C39.8109 23.3339 39.2088 23.6477 38.705 24.1027C38.5331 23.7508 38.3228 23.4261 38.0817 23.1337L39.9713 21.0126C40.2927 20.6519 40.292 20.0675 39.9698 19.7076C39.6477 19.3476 39.126 19.3482 38.8045 19.7091L36.7393 22.0274C36.3463 21.8193 35.9216 21.6746 35.4752 21.6069C35.668 20.5057 36.1452 19.468 36.8832 18.6394C37.8543 17.5492 39.1444 16.9489 40.5158 16.9489ZM34.202 31.2182H33.4878C33.3675 30.8754 33.0701 30.6324 32.7213 30.6324C32.3725 30.6324 32.0751 30.8755 31.9548 31.2182H31.1145C31.3097 30.8624 31.2702 30.3909 30.9948 30.083C30.6727 29.723 30.1509 29.7236 29.8295 30.0844L29.0529 30.956C28.9831 31.0343 28.9295 31.1235 28.89 31.2182H27.213C26.5849 30.1387 26.2016 28.8646 26.1562 27.4939H39.2284C39.183 28.8646 38.7997 30.1387 38.1716 31.2182H36.4264C36.3871 31.1235 36.3333 31.0341 36.2636 30.9559L35.4871 30.0842C35.1655 29.7236 34.644 29.7226 34.3219 30.0828C34.0462 30.3906 34.0068 30.8622 34.202 31.2182ZM32.2857 25.6482C32.5963 24.359 33.6462 23.4077 34.8905 23.4077C36.135 23.4077 37.1849 24.3591 37.4955 25.6482H32.2857ZM33.9707 14.3007C34.7544 15.2494 35.2726 16.3758 35.5268 17.5597C35.1061 18.0717 34.7566 18.6375 34.481 19.2395C34.3558 19.1536 34.2092 19.1033 34.0517 19.1033H32.9538C32.4987 19.1033 32.1298 19.5165 32.1298 20.0262C32.1298 20.5358 32.4987 20.949 32.9538 20.949H33.9169C33.8628 21.2038 33.8207 21.4618 33.7901 21.7216C33.463 21.8179 33.1505 21.9549 32.8581 22.1294C32.3089 21.0679 31.3994 20.2768 30.3219 19.9595C30.3216 19.9569 30.3211 19.9543 30.3207 19.9517C30.2561 19.5341 30.1434 19.1379 29.9897 18.7696L33.9707 14.3007ZM19.0757 22.628C19.0273 22.4766 18.9907 22.3214 18.9667 22.1656C18.7304 20.6397 19.6488 19.1818 21.0136 18.9157C21.1576 18.8876 21.3038 18.8733 21.4482 18.8733C21.991 18.8733 22.5098 19.0673 22.9482 19.4341C23.1296 19.5859 23.359 19.6473 23.5822 19.604C23.8055 19.5606 24.0029 19.4162 24.1281 19.2047C24.515 18.5512 25.1068 18.1176 25.7945 17.9835C25.9388 17.9553 26.0854 17.9412 26.23 17.9412C27.4508 17.9412 28.4884 18.9194 28.6969 20.2673C28.7209 20.4218 28.7332 20.5827 28.7334 20.7457C28.7341 21.2234 29.0603 21.6216 29.4853 21.6634C30.4065 21.7541 31.1907 22.4034 31.5542 23.3182C31.0675 23.9724 30.7301 24.7712 30.602 25.6482H25.903C25.3187 25.6482 24.8174 26.0521 24.6084 26.6238C23.5746 25.8352 22.3562 25.4103 21.0793 25.4103C20.2794 25.4103 19.4958 25.579 18.7496 25.9117C18.623 25.9683 18.5099 26.0519 18.4134 26.1599C18.3156 26.2694 18.2406 26.3978 18.1914 26.5385C18.0018 27.0741 17.8753 27.6248 17.807 28.1789C17.5117 27.8023 17.3036 27.3341 17.2223 26.8087C17.0285 25.5566 17.6137 24.3099 18.645 23.7769C19.0326 23.5765 19.2195 23.078 19.0757 22.628ZM21.532 30.9659L21.7568 31.2182H19.7778C19.3335 30.0638 19.2661 28.7498 19.6267 27.5174C20.0963 27.3437 20.5838 27.2559 21.0793 27.2559C22.3209 27.2559 23.4889 27.7994 24.3679 28.7861C24.4848 28.9174 24.5936 29.0549 24.6959 29.1971C24.8356 29.9051 25.0501 30.5815 25.3265 31.2181H24.0848L22.6986 29.6621C22.377 29.3014 21.8553 29.3004 21.5334 29.6606C21.2112 30.0207 21.2105 30.6051 21.532 30.9659ZM18.023 31.2182H15.0856C15.2165 30.3243 15.6966 29.5623 16.363 29.1129C16.7576 29.7049 17.2725 30.1835 17.8657 30.5078C17.9077 30.7472 17.9592 30.9846 18.023 31.2182ZM9.70744 1.8457H15.8588V5.66493H9.70744V1.8457ZM14.7199 7.51063V9.4416H10.8464V7.51063H14.7199ZM7.03151 17.5403H12.3822C12.8373 17.5403 13.2061 17.1271 13.2061 16.6174C13.2061 16.1078 12.8373 15.6946 12.3822 15.6946H7.03151V13.7977C7.03151 12.4134 8.0339 11.2873 9.26601 11.2873H16.3003C17.5325 11.2873 18.5349 12.4134 18.5349 13.7977V15.6946H16.9964C16.5412 15.6946 16.1724 16.1078 16.1724 16.6174C16.1724 17.1271 16.5412 17.5403 16.9964 17.5403H18.5349V18.3594C17.5909 19.396 17.1006 20.9163 17.3427 22.4801C17.3431 22.4832 17.3437 22.4864 17.3441 22.4896C16.0222 23.5053 15.3179 25.3111 15.5984 27.124C15.6148 27.2298 15.6353 27.3339 15.6577 27.4369C15.2461 27.6911 14.8764 28.0194 14.5595 28.4035H7.03151V17.5403ZM7.0314 30.2491H13.6027C13.5153 30.5602 13.4535 30.8839 13.4234 31.2182H13.2846C12.5262 31.2182 11.9091 31.9099 11.9091 32.76C11.9091 34.2254 12.0307 35.6639 12.2664 37.0713C12.0296 37.05 11.7868 37.0386 11.5398 37.0386C10.5434 37.0386 9.59395 37.2156 8.86677 37.5373C7.75441 38.0292 7.44691 38.7277 7.37978 39.2111C7.2619 39.2768 7.1461 39.3462 7.0314 39.4172V30.2491ZM17.4652 41.586C17.7619 41.8519 17.9433 42.0779 18.0485 42.241C18.0386 42.2411 18.0282 42.2412 18.0178 42.2412C17.5514 42.2412 16.7135 42.0307 15.7607 41.4399C15.4059 41.2198 15.0791 40.9711 14.8154 40.721C14.508 40.4292 14.0572 40.4295 13.7501 40.7211C13.4864 40.9715 13.1597 41.2201 12.8052 41.4397C11.8522 42.0307 11.0143 42.2412 10.548 42.2412C10.5373 42.2412 10.5271 42.2411 10.5171 42.241C10.6222 42.0779 10.8035 41.8518 11.1004 41.5857C11.3598 41.3532 11.4691 40.9688 11.3776 40.6111C11.286 40.2533 11.0115 39.992 10.6814 39.9487C9.87729 39.8432 9.36885 39.6139 9.13077 39.4471C9.42905 39.239 10.1831 38.8843 11.5402 38.8843C12.6641 38.8843 13.4855 39.1489 13.8795 39.3967C14.1301 39.5542 14.4356 39.5542 14.6862 39.3969C15.0804 39.1491 15.902 38.8844 17.0258 38.8844C18.383 38.8844 19.137 39.2393 19.4351 39.4472C19.1972 39.6142 18.6886 39.8433 17.8843 39.9489C17.5542 39.9923 17.2796 40.2534 17.1881 40.6113C17.0963 40.9692 17.2056 41.3536 17.4652 41.586ZM15.8169 52.8184L15.8453 52.9894C15.9433 53.5821 16.1499 54.1261 16.4386 54.5991H11.537C7.58083 54.5991 4.36218 51.3182 4.36218 47.2853C4.36218 44.5291 5.86598 42.1253 8.08037 40.8788C8.33471 41.0915 8.65177 41.2748 9.02794 41.4227C8.87875 41.708 8.77482 42.0149 8.75032 42.335C8.7178 42.7605 8.83403 43.1646 9.07793 43.4729C9.40016 43.8804 9.89476 44.087 10.548 44.087C11.4186 44.087 12.5608 43.701 13.6034 43.0545C13.8434 42.9058 14.0704 42.7487 14.2829 42.5845C14.4953 42.7485 14.7222 42.9057 14.9624 43.0547C16.005 43.701 17.1472 44.0869 18.0178 44.087H18.0179C18.6709 44.087 19.1655 43.8804 19.4877 43.473C19.7317 43.1647 19.848 42.7606 19.8154 42.335C19.7909 42.0149 19.6869 41.708 19.5378 41.4227C19.9139 41.2747 20.2311 41.0913 20.4854 40.8788C22.2416 41.8674 23.5502 43.584 24.0168 45.627L18.1891 48.1065C16.4832 48.8324 15.4856 50.814 15.8169 52.8184ZM46.156 53.7307C45.7497 54.2755 45.1517 54.5881 44.5156 54.5883L43.6508 54.5887L43.1105 51.3212C43.0275 50.82 42.5979 50.4886 42.1502 50.5818C41.7028 50.6746 41.4072 51.156 41.49 51.6572L41.9749 54.5893L39.1398 54.5905L38.7745 52.381C38.6916 51.8798 38.2618 51.5488 37.8142 51.6416C37.3668 51.7344 37.0712 52.2158 37.154 52.717L37.4639 54.5913L30.8693 54.5941L30.373 51.5932C30.2899 51.0921 29.8604 50.7611 29.4127 50.854C28.9652 50.9467 28.6697 51.4283 28.7525 51.9295L29.1934 54.5948L19.5646 54.599C19.5643 54.599 19.5641 54.599 19.5639 54.599C18.5343 54.599 17.6518 53.7808 17.4653 52.6529L17.437 52.4819C17.2507 51.3553 17.813 50.2408 18.774 49.8318L22.0124 48.4539L22.2537 49.9123C22.3272 50.3566 22.6735 50.6672 23.0628 50.6672C23.1127 50.6672 23.1632 50.662 23.214 50.6516C23.6613 50.5587 23.9569 50.0772 23.8739 49.576L23.5781 47.7878L28.3851 45.7425C28.8105 45.5615 29.0244 45.0285 28.8628 44.552C28.7012 44.0755 28.2247 43.836 27.8 44.017L25.5631 44.9688C24.9355 42.4804 23.3234 40.4018 21.1856 39.2109C21.1185 38.7276 20.811 38.0291 19.6987 37.5371C18.9715 37.2155 18.0221 37.0384 17.0256 37.0384C16.3399 37.0384 15.685 37.1232 15.1069 37.2776V36.7202C15.1069 36.2106 14.7381 35.7974 14.2829 35.7974C14.0905 35.7974 13.9141 35.8717 13.7738 35.9955C13.6438 35.0329 13.5711 34.0552 13.559 33.0637H40.3972C40.8524 33.0637 41.2212 32.6505 41.2212 32.1408C41.2212 31.6312 40.8524 31.218 40.3972 31.218H40.06C40.5847 30.0077 40.8811 28.6507 40.8811 27.2166C40.8811 26.4024 40.3249 25.7317 39.6161 25.6555C39.9247 25.3296 40.3098 25.1098 40.7392 25.026C40.865 25.0016 40.9926 24.9891 41.1188 24.9891C42.1826 24.9891 43.0865 25.8415 43.2681 27.0156C43.2891 27.1515 43.2999 27.2918 43.3 27.4327C43.3005 27.9106 43.6268 28.309 44.0519 28.3509C45.0366 28.4477 45.8422 29.2772 46.0111 30.3679C46.0559 30.6579 46.0503 30.9441 46.0054 31.218H45.1213C44.6661 31.218 44.2973 31.6312 44.2973 32.1408C44.2973 32.6505 44.6661 33.0637 45.1213 33.0637H51.5254C51.505 34.7565 51.3103 36.4102 50.9472 38.0146L46.4817 40.9669C46.2086 39.9023 45.5738 38.9993 44.6992 38.451C43.7182 37.8362 42.5525 37.7401 41.5011 38.1873L32.3044 42.1004C31.8789 42.2814 31.6651 42.8145 31.8267 43.2909C31.9883 43.7675 32.4647 44.0067 32.8895 43.8259L34.1011 43.3105L34.4772 45.5852C34.5507 46.0296 34.897 46.3403 35.2865 46.3403C35.3362 46.3403 35.3868 46.3351 35.4375 46.3246C35.8849 46.2319 36.1805 45.7504 36.0977 45.2492L35.6669 42.6443L42.0861 39.913C42.6809 39.6601 43.3399 39.7143 43.8943 40.0619C44.4478 40.4088 44.8313 41.0068 44.9464 41.7023L46.6133 51.7816C46.7283 52.4767 46.5616 53.187 46.156 53.7307ZM49.0959 46.5071C48.7115 46.5862 48.4297 46.9568 48.421 47.3945C48.4125 47.8322 48.6796 48.2163 49.0605 48.3142L55.1953 49.8901L55.042 51.0417L47.9302 49.6103L46.8185 42.8878L53.013 38.7923L53.529 39.8157L48.3041 43.7275C47.9793 43.9707 47.8516 44.4361 47.9986 44.8417C48.1455 45.2472 48.5267 45.4815 48.911 45.4024L57.1184 43.7138L57.3012 44.8188L49.0959 46.5071Z"/>
        </symbol>

    </defs>
</svg>




